<?xml version="1.0" standalone="no"?>
<!DOCTYPE svg PUBLIC "-//W3C//DTD SVG 20010904//EN"
 "http://www.w3.org/TR/2001/REC-SVG-20010904/DTD/svg10.dtd">
<svg version="1.0" xmlns="http://www.w3.org/2000/svg"
 width="1024.000000pt" height="1024.000000pt" viewBox="0 0 1024.000000 1024.000000"
 preserveAspectRatio="xMidYMid meet">

<g transform="translate(0.000000,1024.000000) scale(0.100000,-0.100000)"
fill="#000000" stroke="none">
<path d="M5489 7529 c-43 -4 -108 -16 -146 -27 l-69 -21 -55 20 c-51 20 -69
21 -314 16 -276 -4 -276 -4 -414 -62 l-64 -27 -106 22 c-94 20 -123 22 -251
16 -169 -8 -268 -21 -318 -44 -25 -11 -69 -17 -137 -18 -112 -1 -382 -46 -460
-75 -27 -11 -69 -37 -92 -58 l-42 -39 -62 25 c-56 23 -66 24 -123 14 -104 -18
-387 -90 -432 -110 -50 -23 -99 -84 -109 -138 -4 -21 -9 -41 -11 -45 -3 -4
-28 4 -57 19 -88 45 -164 44 -344 -6 -165 -45 -455 -143 -490 -166 -38 -26
-73 -69 -87 -110 -8 -22 -20 -110 -26 -195 -16 -231 -68 -1036 -76 -1183 -4
-80 -11 -130 -18 -132 -6 -2 -94 -24 -196 -50 -237 -61 -272 -79 -313 -160
-17 -34 -14 -6 -67 -700 -22 -286 -47 -594 -55 -685 -42 -472 -48 -581 -36
-621 26 -88 115 -146 208 -137 27 3 94 26 153 53 58 26 161 72 228 101 68 29
135 60 148 69 31 20 60 78 68 136 l7 47 83 26 c101 31 121 32 139 6 21 -30 85
-60 128 -60 20 0 65 9 100 19 205 62 842 219 1100 271 40 8 69 21 98 46 41 35
42 36 74 21 57 -27 85 -29 164 -13 43 8 120 22 172 31 120 21 165 39 201 83
l29 36 58 -27 c86 -40 166 -57 273 -57 151 0 306 45 415 120 l45 31 46 -33 46
-33 577 -1 c348 0 635 -5 726 -12 512 -41 727 -63 967 -98 100 -15 111 -15
162 1 l54 17 41 -32 c35 -28 59 -36 183 -61 200 -39 416 -86 530 -114 127 -33
159 -32 224 5 l54 30 19 -39 c33 -64 69 -86 228 -136 316 -100 814 -293 1088
-420 144 -67 166 -75 217 -75 69 0 129 35 165 98 25 42 28 55 26 132 -3 125
-40 433 -57 475 -37 88 -74 114 -282 199 -104 42 -161 71 -166 83 -3 10 -16
133 -28 273 -11 140 -25 298 -30 350 -5 52 -17 178 -25 280 -27 314 -34 369
-55 410 -28 55 -76 89 -173 123 -16 6 -13 13 22 60 53 69 85 142 113 252 19
78 22 116 22 280 1 481 -119 785 -386 988 -125 94 -265 157 -528 237 -228 69
-292 64 -377 -28 -51 -55 -64 -49 -90 41 -33 118 -81 145 -379 208 -166 35
-199 34 -258 -6 -20 -14 -42 -25 -49 -25 -7 0 -39 18 -72 40 -129 86 -257 122
-586 165 -207 27 -243 25 -302 -17 l-28 -20 -102 51 c-153 77 -290 103 -458
90z m236 -244 c194 -50 297 -177 350 -430 27 -129 39 -378 26 -543 -17 -236
-61 -364 -154 -449 -91 -84 -176 -108 -348 -101 -178 8 -282 60 -360 180 -82
128 -109 272 -109 583 0 390 43 561 170 679 46 42 76 60 123 75 78 25 218 27
302 6z m-635 -8 c0 -7 -4 -38 -10 -68 -11 -62 -71 -442 -100 -634 -63 -419
-111 -734 -116 -757 l-6 -28 -138 0 c-123 0 -139 2 -144 18 -3 9 -26 134 -51
277 -25 143 -49 271 -52 285 -7 28 -3 45 -77 -344 -25 -131 -46 -240 -48 -241
-4 -4 -270 -26 -273 -23 -2 2 -39 242 -84 533 -123 802 -139 910 -136 913 6 7
290 28 297 23 3 -3 14 -69 23 -147 9 -77 31 -262 50 -410 18 -147 31 -272 29
-276 -3 -4 0 -8 5 -8 6 0 11 10 11 23 0 20 107 645 116 675 3 9 24 12 81 10
l78 -3 66 -345 c57 -295 67 -338 73 -300 5 41 54 467 76 670 5 47 12 104 15
128 l6 42 155 0 c121 0 154 -3 154 -13z m1397 -97 c95 -16 200 -39 235 -51
220 -73 328 -257 328 -556 0 -181 -34 -281 -119 -354 -47 -41 -49 -44 -37 -68
23 -46 198 -512 194 -516 -4 -4 -308 41 -312 47 -1 2 -22 57 -45 123 -82 230
-124 340 -134 353 -5 6 -28 12 -50 12 l-40 0 7 -226 7 -227 -43 6 c-24 3 -91
11 -150 18 l-108 12 -1 286 c-1 157 -4 488 -8 734 l-6 449 55 -7 c30 -3 132
-19 227 -35z m-2931 -17 c-2 -10 -8 -276 -12 -592 -6 -557 -6 -573 12 -568 11
3 82 13 159 22 77 8 152 17 168 18 l28 4 -3 -151 -3 -150 -40 -3 c-78 -7 -362
-44 -483 -63 -67 -11 -127 -20 -132 -20 -6 0 -9 277 -10 720 0 395 -3 726 -6
733 -4 11 25 19 138 36 79 12 150 24 158 25 29 7 31 6 26 -11z m3805 -148
l126 -28 7 -351 c13 -695 17 -786 36 -786 22 0 366 -76 378 -84 13 -8 16 -296
3 -296 -5 0 -69 14 -142 30 -108 25 -538 110 -554 110 -2 0 -4 114 -4 253 -1
316 -10 868 -17 1051 l-5 139 23 -5 c13 -3 80 -18 149 -33z m-4491 10 c0 -12
257 -1282 275 -1362 5 -19 0 -22 -42 -29 -27 -3 -90 -15 -142 -25 -52 -11 -98
-16 -101 -12 -4 5 -15 55 -25 113 -9 58 -20 110 -24 116 -10 16 -270 -35 -275
-55 -2 -9 -14 -70 -26 -137 l-22 -120 -142 -33 c-77 -18 -149 -35 -160 -38
-10 -3 -16 -1 -13 4 5 9 115 483 262 1138 25 110 55 241 66 291 l21 91 157 36
c180 41 191 42 191 22z m5285 -220 c391 -118 540 -226 640 -465 61 -146 98
-462 76 -661 -20 -191 -69 -287 -169 -336 -77 -38 -187 -37 -317 2 -49 15
-148 42 -220 60 l-130 33 -11 538 c-7 297 -14 615 -17 707 -6 155 -5 168 11
163 9 -3 71 -22 137 -41z m-6013 -52 c43 -25 94 -93 110 -146 20 -67 17 -336
-6 -417 -61 -223 -193 -355 -418 -420 l-76 -23 -6 -91 c-3 -50 -9 -142 -14
-205 l-7 -114 -145 -38 c-79 -21 -146 -37 -148 -34 -2 2 12 259 32 572 19 312
38 621 42 685 l7 118 161 51 c88 29 193 60 231 70 88 23 189 20 237 -8z m2853
-1533 c89 -337 134 -502 138 -507 5 -5 34 101 133 481 l78 299 81 -7 c44 -3
119 -6 166 -6 l87 0 1 -761 2 -761 -135 3 -136 4 0 425 c0 233 -4 420 -8 415
-5 -6 -30 -77 -55 -160 -25 -82 -67 -219 -94 -302 l-48 -153 -70 0 -70 0 -95
306 -95 307 -3 -417 -2 -416 -44 0 c-23 0 -84 -3 -134 -6 l-92 -7 0 757 0 756
28 1 c15 1 86 4 157 8 72 3 133 4 137 1 3 -3 36 -120 73 -260z m-751 221 c178
-87 236 -266 236 -727 0 -537 -109 -751 -419 -820 -191 -43 -355 27 -435 183
-57 114 -61 147 -60 533 0 328 2 362 22 448 67 289 234 429 499 418 80 -3 102
-8 157 -35z m1961 4 c99 -8 195 -17 213 -20 l32 -6 0 -144 c0 -94 -4 -145 -10
-145 -6 0 -52 4 -103 9 -51 5 -122 12 -159 16 l-68 6 0 -164 0 -164 114 -6
c62 -4 127 -10 145 -13 l31 -6 0 -139 c0 -126 -2 -139 -17 -138 -10 0 -73 6
-141 13 -68 7 -126 8 -128 4 -3 -5 -2 -78 1 -163 7 -149 9 -155 29 -155 25 -1
199 -17 274 -26 l52 -6 0 -155 0 -155 -30 5 c-33 7 -389 42 -522 52 l-88 7 0
760 0 760 98 -6 c53 -4 178 -14 277 -21z m642 -79 c2 -2 24 -59 48 -127 23
-68 89 -252 144 -409 l102 -285 -4 392 -4 393 21 -5 c11 -2 72 -14 135 -25 63
-11 116 -22 118 -24 4 -4 11 -293 28 -1207 l6 -325 -140 25 c-131 23 -141 26
-150 50 -10 25 -234 633 -270 734 -10 26 -20 50 -23 53 -3 3 -4 -32 -2 -78 2
-46 6 -219 8 -385 l4 -303 -21 5 c-12 3 -73 12 -136 20 -63 9 -116 16 -117 18
-3 2 -24 1295 -24 1440 l0 84 137 -19 c75 -10 138 -20 140 -22z m-3416 -711
c-6 -302 -12 -605 -12 -672 -1 -68 -2 -123 -3 -123 -2 0 -65 -11 -141 -25 -75
-14 -139 -24 -141 -23 -4 5 -220 612 -249 701 l-22 69 -6 -99 c-4 -54 -10
-238 -13 -410 l-7 -312 -56 -12 c-31 -6 -94 -19 -141 -30 -46 -10 -86 -17 -87
-15 -3 2 8 336 38 1201 6 182 14 333 18 337 7 7 273 60 278 55 2 -2 34 -96 72
-208 112 -328 179 -521 185 -527 3 -3 6 171 6 386 l0 391 33 6 c17 3 82 14
142 23 l110 17 3 -90 c2 -49 -1 -337 -7 -640z m-961 523 c0 -24 -3 -93 -6
-153 l-7 -111 -176 -38 c-97 -22 -183 -43 -192 -47 -12 -6 -16 -26 -18 -86 0
-43 -4 -113 -7 -155 l-6 -76 88 20 c164 37 218 47 222 43 2 -2 1 -67 -3 -144
-6 -118 -10 -141 -24 -145 -9 -2 -77 -19 -152 -36 l-136 -31 -7 -76 c-3 -42
-6 -114 -6 -160 0 -81 1 -83 23 -78 12 3 94 21 182 40 88 19 169 37 180 40 20
4 21 1 18 -123 -6 -203 2 -187 -106 -211 -51 -12 -211 -53 -356 -92 -145 -39
-265 -68 -267 -66 -4 3 17 414 64 1267 l17 304 140 33 c407 95 521 121 528
122 4 1 7 -18 7 -41z m5640 -31 l94 -22 63 -290 c145 -669 294 -1339 309
-1387 4 -14 -28 -6 -163 39 -92 31 -170 60 -174 64 -3 5 -15 75 -28 156 -13
82 -27 152 -32 157 -7 8 -245 74 -271 76 -10 0 -16 -25 -33 -140 -8 -58 -18
-117 -21 -131 l-5 -26 -78 22 c-43 13 -112 31 -154 40 -43 9 -77 22 -77 29 0
25 236 1446 245 1473 4 11 95 -6 325 -60z m680 -147 l135 -36 12 -165 c36
-508 93 -1193 100 -1199 4 -4 42 -20 83 -35 70 -26 371 -153 377 -159 6 -5 35
-357 30 -362 -3 -3 -49 17 -103 44 -132 66 -348 159 -546 235 l-163 62 -17
230 c-33 457 -58 825 -73 1060 -8 132 -17 271 -20 308 l-6 68 28 -7 c15 -4 89
-24 163 -44z m-7145 -122 c-4 -84 -8 -164 -10 -177 -1 -23 -12 -27 -221 -76
l-219 -51 -11 -175 c-6 -95 -11 -175 -10 -176 1 -1 18 2 37 7 19 5 101 25 182
44 l149 34 -6 -67 c-3 -36 -8 -114 -12 -172 l-6 -106 -175 -44 c-96 -24 -178
-46 -183 -49 -4 -3 -15 -126 -24 -275 -22 -350 -18 -329 -65 -344 -22 -6 -103
-40 -180 -75 -112 -51 -141 -61 -141 -48 0 16 29 379 66 817 8 105 28 350 42
545 l27 354 375 92 c206 51 379 93 384 93 4 1 5 -68 1 -151z"/>
<path d="M5539 6977 c-76 -51 -96 -130 -105 -408 -13 -387 36 -519 193 -519
44 0 58 5 87 30 20 18 41 50 50 77 26 77 39 253 32 453 -8 252 -32 337 -106
375 -44 23 -111 19 -151 -8z"/>
<path d="M6510 6654 l0 -212 67 -8 c36 -3 78 -3 92 2 61 22 94 133 73 251 -17
104 -54 139 -170 166 l-62 14 0 -213z"/>
<path d="M2673 6527 c-6 -34 -28 -149 -48 -255 -20 -106 -35 -195 -33 -197 8
-8 178 29 178 39 0 18 -79 468 -82 472 -2 2 -9 -25 -15 -59z"/>
<path d="M8304 6302 c3 -86 11 -267 17 -402 5 -135 14 -249 19 -254 5 -5 43
-11 85 -14 73 -4 77 -4 106 24 42 40 49 78 49 274 -1 351 -50 461 -229 514
l-54 16 7 -158z"/>
<path d="M1824 6444 l-40 -14 -11 -203 c-6 -111 -10 -202 -9 -203 0 0 29 8 63
18 74 22 127 70 145 132 7 23 13 85 13 139 0 96 -1 99 -28 123 -32 27 -71 30
-133 8z"/>
<path d="M3985 5168 c-43 -23 -76 -64 -96 -117 -17 -46 -23 -94 -31 -276 -14
-304 -7 -462 24 -523 13 -26 34 -53 48 -60 34 -17 115 -9 148 15 81 60 92 115
99 473 5 294 0 366 -33 437 -26 54 -107 80 -159 51z"/>
<path d="M3695 4000 c10 -11 20 -20 23 -20 3 0 -3 9 -13 20 -10 11 -20 20 -23
20 -3 0 3 -9 13 -20z"/>
<path d="M3878 3903 c7 -3 16 -2 19 1 4 3 -2 6 -13 5 -11 0 -14 -3 -6 -6z"/>
<path d="M5852 4050 c0 -19 2 -27 5 -17 2 9 2 25 0 35 -3 9 -5 1 -5 -18z"/>
<path d="M6158 3943 c6 -2 18 -2 25 0 6 3 1 5 -13 5 -14 0 -19 -2 -12 -5z"/>
<path d="M6258 3933 c6 -2 18 -2 25 0 6 3 1 5 -13 5 -14 0 -19 -2 -12 -5z"/>
<path d="M6844 3965 c0 -49 1 -71 3 -48 2 23 2 64 0 90 -2 26 -3 8 -3 -42z"/>
<path d="M7413 3935 c0 -38 2 -53 4 -32 2 20 2 52 0 70 -2 17 -4 1 -4 -38z"/>
<path d="M6768 3873 c7 -3 16 -2 19 1 4 3 -2 6 -13 5 -11 0 -14 -3 -6 -6z"/>
<path d="M7208 3803 c7 -3 16 -2 19 1 4 3 -2 6 -13 5 -11 0 -14 -3 -6 -6z"/>
<path d="M7268 3793 c7 -3 16 -2 19 1 4 3 -2 6 -13 5 -11 0 -14 -3 -6 -6z"/>
<path d="M7318 3783 c6 -2 18 -2 25 0 6 3 1 5 -13 5 -14 0 -19 -2 -12 -5z"/>
<path d="M7368 3773 c7 -3 16 -2 19 1 4 3 -2 6 -13 5 -11 0 -14 -3 -6 -6z"/>
<path d="M3392 3930 c0 -19 2 -27 5 -17 2 9 2 25 0 35 -3 9 -5 1 -5 -18z"/>
<path d="M3258 3853 c6 -2 18 -2 25 0 6 3 1 5 -13 5 -14 0 -19 -2 -12 -5z"/>
<path d="M2571 3834 c0 -11 3 -14 6 -6 3 7 2 16 -1 19 -3 4 -6 -2 -5 -13z"/>
<path d="M3140 3839 c0 -5 11 -9 25 -9 14 0 25 2 25 4 0 2 -11 6 -25 8 -14 3
-25 1 -25 -3z"/>
<path d="M2572 3765 c0 -16 2 -22 5 -12 2 9 2 23 0 30 -3 6 -5 -1 -5 -18z"/>
<path d="M2800 3780 c-13 -8 -12 -10 3 -10 9 0 17 5 17 10 0 12 -1 12 -20 0z"/>
<path d="M1808 3533 c7 -3 16 -2 19 1 4 3 -2 6 -13 5 -11 0 -14 -3 -6 -6z"/>
<path d="M7965 4500 c-21 -148 -35 -275 -32 -282 4 -12 185 -63 193 -55 2 2
-21 124 -51 273 -30 148 -55 281 -55 296 0 15 -4 29 -9 32 -4 3 -25 -116 -46
-264z"/>
<path d="M8461 3834 c0 -11 3 -14 6 -6 3 7 2 16 -1 19 -3 4 -6 -2 -5 -13z"/>
<path d="M7852 3800 c0 -14 2 -19 5 -12 2 6 2 18 0 25 -3 6 -5 1 -5 -13z"/>
<path d="M8471 3794 c0 -11 3 -14 6 -6 3 7 2 16 -1 19 -3 4 -6 -2 -5 -13z"/>
<path d="M8221 3744 c0 -11 3 -14 6 -6 3 7 2 16 -1 19 -3 4 -6 -2 -5 -13z"/>
<path d="M8491 3704 c0 -11 3 -14 6 -6 3 7 2 16 -1 19 -3 4 -6 -2 -5 -13z"/>
<path d="M8231 3694 c0 -11 3 -14 6 -6 3 7 2 16 -1 19 -3 4 -6 -2 -5 -13z"/>
<path d="M7728 3693 c7 -3 16 -2 19 1 4 3 -2 6 -13 5 -11 0 -14 -3 -6 -6z"/>
<path d="M7808 3673 c7 -3 16 -2 19 1 4 3 -2 6 -13 5 -11 0 -14 -3 -6 -6z"/>
<path d="M8501 3664 c0 -11 3 -14 6 -6 3 7 2 16 -1 19 -3 4 -6 -2 -5 -13z"/>
<path d="M8241 3624 c0 -11 3 -14 6 -6 3 7 2 16 -1 19 -3 4 -6 -2 -5 -13z"/>
<path d="M8512 3620 c0 -14 2 -19 5 -12 2 6 2 18 0 25 -3 6 -5 1 -5 -13z"/>
<path d="M8253 3576 c1 -11 9 -21 17 -23 10 -3 11 -2 4 4 -6 4 -14 15 -17 23
-5 11 -6 9 -4 -4z"/>
<path d="M8521 3574 c0 -11 3 -14 6 -6 3 7 2 16 -1 19 -3 4 -6 -2 -5 -13z"/>
<path d="M8531 3534 c0 -11 3 -14 6 -6 3 7 2 16 -1 19 -3 4 -6 -2 -5 -13z"/>
<path d="M8540 3480 c0 -11 4 -20 9 -20 5 0 7 9 4 20 -3 11 -7 20 -9 20 -2 0
-4 -9 -4 -20z"/>
<path d="M8992 3800 c0 -14 2 -19 5 -12 2 6 2 18 0 25 -3 6 -5 1 -5 -13z"/>
<path d="M8713 3660 c0 -30 2 -43 4 -27 2 15 2 39 0 55 -2 15 -4 2 -4 -28z"/>
<path d="M9003 3645 c0 -22 2 -30 4 -17 2 12 2 30 0 40 -3 9 -5 -1 -4 -23z"/>
<path d="M8723 3505 c0 -22 2 -30 4 -17 2 12 2 30 0 40 -3 9 -5 -1 -4 -23z"/>
<path d="M9200 3510 c8 -5 20 -10 25 -10 6 0 3 5 -5 10 -8 5 -19 10 -25 10 -5
0 -3 -5 5 -10z"/>
<path d="M8730 3400 c0 -5 5 -10 11 -10 5 0 7 5 4 10 -3 6 -8 10 -11 10 -2 0
-4 -4 -4 -10z"/>
<path d="M9481 3354 c0 -11 3 -14 6 -6 3 7 2 16 -1 19 -3 4 -6 -2 -5 -13z"/>
<path d="M9030 3280 c8 -5 20 -10 25 -10 6 0 3 5 -5 10 -8 5 -19 10 -25 10 -5
0 -3 -5 5 -10z"/>
<path d="M9492 3245 c0 -16 2 -22 5 -12 2 9 2 23 0 30 -3 6 -5 -1 -5 -18z"/>
<path d="M9503 3135 c0 -22 2 -30 4 -17 2 12 2 30 0 40 -3 9 -5 -1 -4 -23z"/>
<path d="M821 3814 c0 -11 3 -14 6 -6 3 7 2 16 -1 19 -3 4 -6 -2 -5 -13z"/>
<path d="M1121 3764 c0 -11 3 -14 6 -6 3 7 2 16 -1 19 -3 4 -6 -2 -5 -13z"/>
<path d="M812 3690 c0 -14 2 -19 5 -12 2 6 2 18 0 25 -3 6 -5 1 -5 -13z"/>
<path d="M1113 3595 c0 -27 2 -38 4 -22 2 15 2 37 0 50 -2 12 -4 0 -4 -28z"/>
<path d="M1103 3435 c0 -27 2 -38 4 -22 2 15 2 37 0 50 -2 12 -4 0 -4 -28z"/>
<path d="M792 3445 c0 -16 2 -22 5 -12 2 9 2 23 0 30 -3 6 -5 -1 -5 -18z"/>
<path d="M1092 3310 c0 -19 2 -27 5 -17 2 9 2 25 0 35 -3 9 -5 1 -5 -18z"/>
</g>
</svg>
